<mxfile host="app.diagrams.net" agent="Mozilla/5.0 (Windows NT 10.0; Win64; x64) AppleWebKit/537.36 (KHTML, like Gecko) Chrome/133.0.0.0 Safari/537.36" version="26.0.16">
  <diagram id="Ht1M8jgEwFfnCIfOTk4-" name="Page-1">
    <mxGraphModel dx="1434" dy="738" grid="1" gridSize="10" guides="1" tooltips="1" connect="1" arrows="1" fold="1" page="1" pageScale="1" pageWidth="1169" pageHeight="827" math="0" shadow="0">
      <root>
        <mxCell id="0" />
        <mxCell id="1" parent="0" />
        <mxCell id="NSB9uchk69Qtgk8OUiJh-56" value="" style="rounded=0;whiteSpace=wrap;html=1;strokeColor=#00FF00;strokeWidth=4;" vertex="1" parent="1">
          <mxGeometry x="580" y="369" width="1210" height="481" as="geometry" />
        </mxCell>
        <mxCell id="NSB9uchk69Qtgk8OUiJh-62" value="" style="rounded=0;whiteSpace=wrap;html=1;strokeColor=#CCCC00;strokeWidth=5;" vertex="1" parent="1">
          <mxGeometry x="1520" y="395.5" width="240" height="213" as="geometry" />
        </mxCell>
        <mxCell id="NSB9uchk69Qtgk8OUiJh-60" value="" style="rounded=0;whiteSpace=wrap;html=1;strokeColor=#FF00FF;strokeWidth=5;" vertex="1" parent="1">
          <mxGeometry x="1070" y="400" width="341" height="440" as="geometry" />
        </mxCell>
        <mxCell id="NSB9uchk69Qtgk8OUiJh-58" value="" style="rounded=0;whiteSpace=wrap;html=1;strokeColor=#994C00;strokeWidth=5;" vertex="1" parent="1">
          <mxGeometry x="659" y="417.5" width="341" height="262.5" as="geometry" />
        </mxCell>
        <mxCell id="UEzPUAAOIrF-is8g5C7q-128" style="edgeStyle=orthogonalEdgeStyle;rounded=0;orthogonalLoop=1;jettySize=auto;html=1;startArrow=open;startFill=0;endArrow=open;endFill=0;strokeWidth=2;strokeColor=#001DBC;fillColor=#0050ef;" parent="1" source="UEzPUAAOIrF-is8g5C7q-109" target="NSB9uchk69Qtgk8OUiJh-3" edge="1">
          <mxGeometry relative="1" as="geometry">
            <Array as="points">
              <mxPoint x="240" y="406" />
              <mxPoint x="240" y="330" />
            </Array>
          </mxGeometry>
        </mxCell>
        <mxCell id="UEzPUAAOIrF-is8g5C7q-127" style="edgeStyle=orthogonalEdgeStyle;rounded=0;orthogonalLoop=1;jettySize=auto;html=1;startArrow=open;startFill=0;endArrow=open;endFill=0;strokeWidth=2;strokeColor=#6F0000;fillColor=#a20025;" parent="1" source="UEzPUAAOIrF-is8g5C7q-110" target="NSB9uchk69Qtgk8OUiJh-3" edge="1">
          <mxGeometry relative="1" as="geometry">
            <Array as="points">
              <mxPoint x="375" y="282" />
              <mxPoint x="375" y="299" />
            </Array>
          </mxGeometry>
        </mxCell>
        <mxCell id="UEzPUAAOIrF-is8g5C7q-109" value="next.js (web)" style="outlineConnect=0;gradientColor=none;fontColor=#545B64;strokeColor=none;fillColor=#879196;dashed=0;verticalLabelPosition=bottom;verticalAlign=top;align=center;html=1;fontSize=12;fontStyle=0;aspect=fixed;shape=mxgraph.aws4.illustration_desktop;pointerEvents=1;labelBackgroundColor=#ffffff;" parent="1" vertex="1">
          <mxGeometry x="10" y="360" width="100" height="91" as="geometry" />
        </mxCell>
        <mxCell id="NSB9uchk69Qtgk8OUiJh-1" value="" style="edgeStyle=orthogonalEdgeStyle;rounded=0;orthogonalLoop=1;jettySize=auto;html=1;" edge="1" parent="1" source="UEzPUAAOIrF-is8g5C7q-110" target="UEzPUAAOIrF-is8g5C7q-109">
          <mxGeometry relative="1" as="geometry" />
        </mxCell>
        <mxCell id="UEzPUAAOIrF-is8g5C7q-110" value="react native(ios, android)&lt;div&gt;&lt;br&gt;&lt;/div&gt;" style="outlineConnect=0;gradientColor=none;fontColor=#545B64;strokeColor=none;fillColor=#879196;dashed=0;verticalLabelPosition=bottom;verticalAlign=top;align=center;html=1;fontSize=12;fontStyle=0;aspect=fixed;shape=mxgraph.aws4.illustration_notification;pointerEvents=1;labelBackgroundColor=#ffffff;" parent="1" vertex="1">
          <mxGeometry x="20" y="201.5" width="100" height="81" as="geometry" />
        </mxCell>
        <mxCell id="UEzPUAAOIrF-is8g5C7q-114" value="Amazon API&lt;br&gt;Gateway&lt;br&gt;" style="outlineConnect=0;fontColor=#232F3E;gradientColor=#945DF2;gradientDirection=north;fillColor=#5A30B5;strokeColor=#ffffff;dashed=0;verticalLabelPosition=bottom;verticalAlign=top;align=center;html=1;fontSize=12;fontStyle=0;aspect=fixed;shape=mxgraph.aws4.resourceIcon;resIcon=mxgraph.aws4.api_gateway;labelBackgroundColor=#ffffff;" parent="1" vertex="1">
          <mxGeometry x="680" y="442" width="78" height="78" as="geometry" />
        </mxCell>
        <mxCell id="UEzPUAAOIrF-is8g5C7q-116" value="Amazon S3" style="outlineConnect=0;fontColor=#232F3E;gradientColor=#60A337;gradientDirection=north;fillColor=#277116;strokeColor=#ffffff;dashed=0;verticalLabelPosition=bottom;verticalAlign=top;align=center;html=1;fontSize=12;fontStyle=0;aspect=fixed;shape=mxgraph.aws4.resourceIcon;resIcon=mxgraph.aws4.s3;labelBackgroundColor=#ffffff;" parent="1" vertex="1">
          <mxGeometry x="478.5000000000002" y="60" width="78" height="78" as="geometry" />
        </mxCell>
        <mxCell id="UEzPUAAOIrF-is8g5C7q-119" value="Amazon&lt;br&gt;DynamoDB&lt;br&gt;" style="outlineConnect=0;fontColor=#232F3E;gradientColor=#4D72F3;gradientDirection=north;fillColor=#3334B9;strokeColor=#ffffff;dashed=0;verticalLabelPosition=bottom;verticalAlign=top;align=center;html=1;fontSize=12;fontStyle=0;aspect=fixed;shape=mxgraph.aws4.resourceIcon;resIcon=mxgraph.aws4.dynamodb;labelBackgroundColor=#ffffff;spacingTop=5;" parent="1" vertex="1">
          <mxGeometry x="1540" y="442" width="109" height="109" as="geometry" />
        </mxCell>
        <mxCell id="NSB9uchk69Qtgk8OUiJh-3" value="" style="outlineConnect=0;dashed=0;verticalLabelPosition=bottom;verticalAlign=top;align=center;html=1;shape=mxgraph.aws3.route_53;fillColor=#F58536;gradientColor=none;" vertex="1" parent="1">
          <mxGeometry x="280" y="222.25" width="110" height="127" as="geometry" />
        </mxCell>
        <mxCell id="NSB9uchk69Qtgk8OUiJh-5" value="Route53" style="text;html=1;align=center;verticalAlign=middle;whiteSpace=wrap;rounded=0;" vertex="1" parent="1">
          <mxGeometry x="305" y="365.75" width="60" height="30" as="geometry" />
        </mxCell>
        <mxCell id="NSB9uchk69Qtgk8OUiJh-6" value="" style="outlineConnect=0;dashed=0;verticalLabelPosition=bottom;verticalAlign=top;align=center;html=1;shape=mxgraph.aws3.cloudfront;fillColor=#F58536;gradientColor=none;" vertex="1" parent="1">
          <mxGeometry x="480" y="239.25" width="76.5" height="93" as="geometry" />
        </mxCell>
        <mxCell id="NSB9uchk69Qtgk8OUiJh-7" value="CloudFront" style="text;html=1;align=center;verticalAlign=middle;whiteSpace=wrap;rounded=0;" vertex="1" parent="1">
          <mxGeometry x="488.25" y="341.75" width="60" height="30" as="geometry" />
        </mxCell>
        <mxCell id="NSB9uchk69Qtgk8OUiJh-8" style="edgeStyle=orthogonalEdgeStyle;rounded=0;orthogonalLoop=1;jettySize=auto;html=1;startArrow=open;startFill=0;endArrow=open;endFill=0;strokeWidth=2;strokeColor=#808080;" edge="1" parent="1" source="NSB9uchk69Qtgk8OUiJh-6">
          <mxGeometry relative="1" as="geometry">
            <Array as="points">
              <mxPoint x="510" y="300" />
              <mxPoint x="510" y="300" />
            </Array>
            <mxPoint x="130" y="252" as="sourcePoint" />
            <mxPoint x="518" y="160" as="targetPoint" />
          </mxGeometry>
        </mxCell>
        <mxCell id="NSB9uchk69Qtgk8OUiJh-14" value="HTML,&lt;div&gt;CSS&lt;/div&gt;" style="text;html=1;align=center;verticalAlign=middle;whiteSpace=wrap;rounded=0;" vertex="1" parent="1">
          <mxGeometry x="420" y="70" width="60" height="30" as="geometry" />
        </mxCell>
        <mxCell id="NSB9uchk69Qtgk8OUiJh-15" value="media image,&lt;br&gt;file" style="text;html=1;align=center;verticalAlign=middle;whiteSpace=wrap;rounded=0;" vertex="1" parent="1">
          <mxGeometry x="418.5" y="120" width="60" height="30" as="geometry" />
        </mxCell>
        <mxCell id="NSB9uchk69Qtgk8OUiJh-16" style="edgeStyle=orthogonalEdgeStyle;rounded=0;orthogonalLoop=1;jettySize=auto;html=1;startArrow=open;startFill=0;endArrow=open;endFill=0;strokeWidth=2;strokeColor=#808080;entryX=1;entryY=0.5;entryDx=0;entryDy=0;entryPerimeter=0;" edge="1" parent="1" target="NSB9uchk69Qtgk8OUiJh-3">
          <mxGeometry relative="1" as="geometry">
            <mxPoint x="470" y="286" as="sourcePoint" />
            <mxPoint x="416" y="308.76" as="targetPoint" />
          </mxGeometry>
        </mxCell>
        <mxCell id="NSB9uchk69Qtgk8OUiJh-17" value="" style="points=[];aspect=fixed;html=1;align=center;shadow=0;dashed=0;fillColor=#FF6A00;strokeColor=none;shape=mxgraph.alibaba_cloud.ga_global_accelerator;" vertex="1" parent="1">
          <mxGeometry x="482.12" y="440" width="70.77" height="70.77" as="geometry" />
        </mxCell>
        <mxCell id="NSB9uchk69Qtgk8OUiJh-18" value="Global Accelerator" style="text;html=1;align=center;verticalAlign=middle;whiteSpace=wrap;rounded=0;" vertex="1" parent="1">
          <mxGeometry x="488.25" y="520" width="60" height="30" as="geometry" />
        </mxCell>
        <mxCell id="NSB9uchk69Qtgk8OUiJh-19" style="edgeStyle=orthogonalEdgeStyle;rounded=0;orthogonalLoop=1;jettySize=auto;html=1;startArrow=open;startFill=0;endArrow=open;endFill=0;strokeWidth=2;strokeColor=#808080;" edge="1" parent="1" target="NSB9uchk69Qtgk8OUiJh-3">
          <mxGeometry relative="1" as="geometry">
            <mxPoint x="480" y="480" as="sourcePoint" />
            <mxPoint x="380" y="370" as="targetPoint" />
            <Array as="points">
              <mxPoint x="460" y="480" />
              <mxPoint x="460" y="330" />
            </Array>
          </mxGeometry>
        </mxCell>
        <mxCell id="NSB9uchk69Qtgk8OUiJh-20" value="caching" style="text;html=1;align=center;verticalAlign=middle;whiteSpace=wrap;rounded=0;" vertex="1" parent="1">
          <mxGeometry x="400" y="250" width="60" height="30" as="geometry" />
        </mxCell>
        <mxCell id="NSB9uchk69Qtgk8OUiJh-21" value="call API" style="text;html=1;align=center;verticalAlign=middle;whiteSpace=wrap;rounded=0;" vertex="1" parent="1">
          <mxGeometry x="400" y="335.75" width="60" height="30" as="geometry" />
        </mxCell>
        <mxCell id="NSB9uchk69Qtgk8OUiJh-22" value="" style="points=[];aspect=fixed;html=1;align=center;shadow=0;dashed=0;fillColor=#FF6A00;strokeColor=none;shape=mxgraph.alibaba_cloud.nat_gateway;" vertex="1" parent="1">
          <mxGeometry x="680" y="584.13" width="78" height="63.03" as="geometry" />
        </mxCell>
        <mxCell id="NSB9uchk69Qtgk8OUiJh-23" value="" style="endArrow=classic;html=1;rounded=0;strokeColor=#8F8F8F;strokeWidth=2;" edge="1" parent="1" target="UEzPUAAOIrF-is8g5C7q-114">
          <mxGeometry width="50" height="50" relative="1" as="geometry">
            <mxPoint x="560" y="480" as="sourcePoint" />
            <mxPoint x="610" y="460" as="targetPoint" />
          </mxGeometry>
        </mxCell>
        <mxCell id="NSB9uchk69Qtgk8OUiJh-24" value="" style="endArrow=classic;html=1;rounded=0;strokeWidth=2;strokeColor=#8A8A8A;" edge="1" parent="1">
          <mxGeometry width="50" height="50" relative="1" as="geometry">
            <mxPoint x="670" y="620" as="sourcePoint" />
            <mxPoint x="520" y="560" as="targetPoint" />
            <Array as="points">
              <mxPoint x="520" y="620" />
            </Array>
          </mxGeometry>
        </mxCell>
        <mxCell id="NSB9uchk69Qtgk8OUiJh-25" value="NAT Gateway" style="text;html=1;align=center;verticalAlign=middle;whiteSpace=wrap;rounded=0;" vertex="1" parent="1">
          <mxGeometry x="689" y="647.16" width="60" height="30" as="geometry" />
        </mxCell>
        <mxCell id="NSB9uchk69Qtgk8OUiJh-26" value="" style="points=[];aspect=fixed;html=1;align=center;shadow=0;dashed=0;fillColor=#FF6A00;strokeColor=none;shape=mxgraph.alibaba_cloud.alb_application_load_balancer_01;" vertex="1" parent="1">
          <mxGeometry x="890" y="442" width="103.76" height="88" as="geometry" />
        </mxCell>
        <mxCell id="NSB9uchk69Qtgk8OUiJh-27" value="ALB" style="text;html=1;align=center;verticalAlign=middle;whiteSpace=wrap;rounded=0;" vertex="1" parent="1">
          <mxGeometry x="911.88" y="530" width="60" height="30" as="geometry" />
        </mxCell>
        <mxCell id="NSB9uchk69Qtgk8OUiJh-28" value="" style="endArrow=classic;html=1;rounded=0;strokeColor=#8F8F8F;strokeWidth=2;" edge="1" parent="1">
          <mxGeometry width="50" height="50" relative="1" as="geometry">
            <mxPoint x="770" y="480.5" as="sourcePoint" />
            <mxPoint x="890" y="480" as="targetPoint" />
          </mxGeometry>
        </mxCell>
        <mxCell id="NSB9uchk69Qtgk8OUiJh-30" value="" style="endArrow=classic;html=1;rounded=0;strokeWidth=2;strokeColor=#8A8A8A;exitX=0.5;exitY=1;exitDx=0;exitDy=0;" edge="1" parent="1" source="NSB9uchk69Qtgk8OUiJh-27">
          <mxGeometry width="50" height="50" relative="1" as="geometry">
            <mxPoint x="930" y="620" as="sourcePoint" />
            <mxPoint x="770" y="620" as="targetPoint" />
            <Array as="points">
              <mxPoint x="942" y="620" />
            </Array>
          </mxGeometry>
        </mxCell>
        <mxCell id="NSB9uchk69Qtgk8OUiJh-31" value="" style="rounded=0;whiteSpace=wrap;html=1;" vertex="1" parent="1">
          <mxGeometry x="1090" y="414" width="290" height="176" as="geometry" />
        </mxCell>
        <mxCell id="NSB9uchk69Qtgk8OUiJh-32" value="Target Group" style="text;html=1;align=center;verticalAlign=middle;whiteSpace=wrap;rounded=0;" vertex="1" parent="1">
          <mxGeometry x="1070" y="410" width="110" height="30" as="geometry" />
        </mxCell>
        <mxCell id="NSB9uchk69Qtgk8OUiJh-33" value="" style="outlineConnect=0;dashed=0;verticalLabelPosition=bottom;verticalAlign=top;align=center;html=1;shape=mxgraph.aws3.ec2;fillColor=#F58534;gradientColor=none;" vertex="1" parent="1">
          <mxGeometry x="1120" y="462.5" width="60" height="79" as="geometry" />
        </mxCell>
        <mxCell id="NSB9uchk69Qtgk8OUiJh-34" value="" style="outlineConnect=0;dashed=0;verticalLabelPosition=bottom;verticalAlign=top;align=center;html=1;shape=mxgraph.aws3.ec2;fillColor=#F58534;gradientColor=none;" vertex="1" parent="1">
          <mxGeometry x="1190" y="462.5" width="60" height="79" as="geometry" />
        </mxCell>
        <mxCell id="NSB9uchk69Qtgk8OUiJh-35" value="" style="outlineConnect=0;dashed=0;verticalLabelPosition=bottom;verticalAlign=top;align=center;html=1;shape=mxgraph.aws3.ec2;fillColor=#F58534;gradientColor=none;" vertex="1" parent="1">
          <mxGeometry x="1260" y="462.5" width="60" height="79" as="geometry" />
        </mxCell>
        <mxCell id="NSB9uchk69Qtgk8OUiJh-36" value="" style="shape=waypoint;sketch=0;fillStyle=solid;size=6;pointerEvents=1;points=[];fillColor=none;resizable=0;rotatable=0;perimeter=centerPerimeter;snapToPoint=1;" vertex="1" parent="1">
          <mxGeometry x="1330" y="492" width="20" height="20" as="geometry" />
        </mxCell>
        <mxCell id="NSB9uchk69Qtgk8OUiJh-37" value="" style="shape=waypoint;sketch=0;fillStyle=solid;size=6;pointerEvents=1;points=[];fillColor=none;resizable=0;rotatable=0;perimeter=centerPerimeter;snapToPoint=1;" vertex="1" parent="1">
          <mxGeometry x="1350" y="492" width="20" height="20" as="geometry" />
        </mxCell>
        <mxCell id="NSB9uchk69Qtgk8OUiJh-38" value="auto scaling" style="text;html=1;align=center;verticalAlign=middle;whiteSpace=wrap;rounded=0;" vertex="1" parent="1">
          <mxGeometry x="1070" y="560" width="110" height="30" as="geometry" />
        </mxCell>
        <mxCell id="NSB9uchk69Qtgk8OUiJh-39" value="websocket" style="text;html=1;align=center;verticalAlign=middle;whiteSpace=wrap;rounded=0;" vertex="1" parent="1">
          <mxGeometry x="1110" y="432.5" width="80" height="30" as="geometry" />
        </mxCell>
        <mxCell id="NSB9uchk69Qtgk8OUiJh-40" value="websocket" style="text;html=1;align=center;verticalAlign=middle;whiteSpace=wrap;rounded=0;" vertex="1" parent="1">
          <mxGeometry x="1180" y="432.5" width="80" height="30" as="geometry" />
        </mxCell>
        <mxCell id="NSB9uchk69Qtgk8OUiJh-41" value="websocket" style="text;html=1;align=center;verticalAlign=middle;whiteSpace=wrap;rounded=0;" vertex="1" parent="1">
          <mxGeometry x="1250" y="432.5" width="80" height="30" as="geometry" />
        </mxCell>
        <mxCell id="NSB9uchk69Qtgk8OUiJh-46" value="" style="endArrow=classic;startArrow=classic;html=1;rounded=0;entryX=0;entryY=0.25;entryDx=0;entryDy=0;strokeColor=#8A8A8A;" edge="1" parent="1" target="NSB9uchk69Qtgk8OUiJh-31">
          <mxGeometry width="50" height="50" relative="1" as="geometry">
            <mxPoint x="1000" y="458" as="sourcePoint" />
            <mxPoint x="750" y="360" as="targetPoint" />
          </mxGeometry>
        </mxCell>
        <mxCell id="NSB9uchk69Qtgk8OUiJh-47" value="" style="endArrow=classic;startArrow=classic;html=1;rounded=0;entryX=0;entryY=0.25;entryDx=0;entryDy=0;strokeColor=#8A8A8A;" edge="1" parent="1">
          <mxGeometry width="50" height="50" relative="1" as="geometry">
            <mxPoint x="1000" y="492" as="sourcePoint" />
            <mxPoint x="1090" y="492" as="targetPoint" />
          </mxGeometry>
        </mxCell>
        <mxCell id="NSB9uchk69Qtgk8OUiJh-48" value="" style="endArrow=classic;startArrow=classic;html=1;rounded=0;entryX=0;entryY=0.25;entryDx=0;entryDy=0;strokeColor=#8A8A8A;" edge="1" parent="1">
          <mxGeometry width="50" height="50" relative="1" as="geometry">
            <mxPoint x="1000" y="529" as="sourcePoint" />
            <mxPoint x="1090" y="529" as="targetPoint" />
          </mxGeometry>
        </mxCell>
        <mxCell id="NSB9uchk69Qtgk8OUiJh-49" value="&lt;font style=&quot;color: rgb(255, 0, 0);&quot;&gt;유저 세션JWT 보안&lt;/font&gt;" style="text;html=1;align=center;verticalAlign=middle;whiteSpace=wrap;rounded=0;" vertex="1" parent="1">
          <mxGeometry x="1260" y="560" width="120" height="30" as="geometry" />
        </mxCell>
        <mxCell id="NSB9uchk69Qtgk8OUiJh-50" value="" style="image;sketch=0;aspect=fixed;html=1;points=[];align=center;fontSize=12;image=img/lib/mscae/Cache_Redis_Product.svg;" vertex="1" parent="1">
          <mxGeometry x="1169" y="700" width="119.05" height="100" as="geometry" />
        </mxCell>
        <mxCell id="NSB9uchk69Qtgk8OUiJh-51" value="" style="endArrow=classic;startArrow=classic;html=1;rounded=0;strokeColor=#8A8A8A;exitX=0.997;exitY=0.46;exitDx=0;exitDy=0;exitPerimeter=0;" edge="1" parent="1" source="NSB9uchk69Qtgk8OUiJh-31" target="UEzPUAAOIrF-is8g5C7q-119">
          <mxGeometry width="50" height="50" relative="1" as="geometry">
            <mxPoint x="1420" y="491" as="sourcePoint" />
            <mxPoint x="1510" y="491" as="targetPoint" />
          </mxGeometry>
        </mxCell>
        <mxCell id="NSB9uchk69Qtgk8OUiJh-52" value="" style="endArrow=classic;startArrow=classic;html=1;rounded=0;strokeColor=#8A8A8A;" edge="1" parent="1">
          <mxGeometry width="50" height="50" relative="1" as="geometry">
            <mxPoint x="1230" y="600" as="sourcePoint" />
            <mxPoint x="1230" y="690" as="targetPoint" />
          </mxGeometry>
        </mxCell>
        <mxCell id="NSB9uchk69Qtgk8OUiJh-53" value="Redis pub/sub" style="text;html=1;align=center;verticalAlign=middle;whiteSpace=wrap;rounded=0;" vertex="1" parent="1">
          <mxGeometry x="1172.79" y="810" width="111.47" height="30" as="geometry" />
        </mxCell>
        <mxCell id="NSB9uchk69Qtgk8OUiJh-54" value="실시간 메세지, 온라인 상태여부&lt;div&gt;브로드캐스트&lt;/div&gt;" style="text;html=1;align=center;verticalAlign=middle;whiteSpace=wrap;rounded=0;" vertex="1" parent="1">
          <mxGeometry x="1310" y="715" width="90" height="70" as="geometry" />
        </mxCell>
        <mxCell id="NSB9uchk69Qtgk8OUiJh-55" value="영구데이터 저장&lt;div&gt;(채팅기록, 이전대화)&lt;/div&gt;" style="text;html=1;align=center;verticalAlign=middle;whiteSpace=wrap;rounded=0;" vertex="1" parent="1">
          <mxGeometry x="1654" y="467" width="100" height="59" as="geometry" />
        </mxCell>
        <mxCell id="NSB9uchk69Qtgk8OUiJh-57" value="&lt;font style=&quot;color: rgb(51, 255, 51); font-size: 18px;&quot;&gt;VPC&lt;/font&gt;" style="text;html=1;align=center;verticalAlign=middle;whiteSpace=wrap;rounded=0;" vertex="1" parent="1">
          <mxGeometry x="570" y="339" width="60" height="30" as="geometry" />
        </mxCell>
        <mxCell id="NSB9uchk69Qtgk8OUiJh-59" value="&lt;font style=&quot;color: rgb(153, 76, 0); font-size: 15px;&quot;&gt;Public subnet&lt;/font&gt;" style="text;html=1;align=center;verticalAlign=middle;whiteSpace=wrap;rounded=0;" vertex="1" parent="1">
          <mxGeometry x="658" y="390.5" width="100" height="30" as="geometry" />
        </mxCell>
        <mxCell id="NSB9uchk69Qtgk8OUiJh-61" value="Private subnet" style="text;html=1;align=center;verticalAlign=middle;whiteSpace=wrap;rounded=0;fontColor=#FF00FF;" vertex="1" parent="1">
          <mxGeometry x="1060" y="371.75" width="100" height="30" as="geometry" />
        </mxCell>
        <mxCell id="NSB9uchk69Qtgk8OUiJh-63" value="Database subnet" style="text;html=1;align=center;verticalAlign=middle;whiteSpace=wrap;rounded=0;fontColor=#CCCC00;" vertex="1" parent="1">
          <mxGeometry x="1520" y="369" width="100" height="30" as="geometry" />
        </mxCell>
      </root>
    </mxGraphModel>
  </diagram>
</mxfile>
